<?xml version="1.0" encoding="utf-8"?>
<svg version="1.1" id="Слой_1" xmlns="http://www.w3.org/2000/svg" xmlns:xlink="http://www.w3.org/1999/xlink" x="0px" y="0px"
	 viewBox="0 0 512 512" enable-background="new 0 0 512 512" xml:space="preserve" fill="#2ec1a7">
<path d="M428,202c0-6.2-2-11.3-6-15.3l-30.3-30c-4.2-4.2-9.2-6.3-15-6.3c-5.8,0-10.8,2.1-15,6.3l-136,135.7L150.3,217
	c-4.2-4.2-9.2-6.3-15-6.3s-10.8,2.1-15,6.3L90,247c-4,4-6,9.1-6,15.3c0,6,2,11,6,15L210.7,398c4.2,4.2,9.2,6.3,15,6.3
	c6,0,11.1-2.1,15.3-6.3l181-181C426,213,428,208,428,202z M512,256c0,46.4-11.4,89.3-34.3,128.5c-22.9,39.2-53.9,70.3-93.2,93.2
	C345.3,500.6,302.4,512,256,512s-89.3-11.4-128.5-34.3c-39.2-22.9-70.3-53.9-93.2-93.2S0,302.4,0,256s11.4-89.3,34.3-128.5
	s53.9-70.3,93.2-93.2S209.6,0,256,0s89.3,11.4,128.5,34.3s70.3,53.9,93.2,93.2C500.6,166.7,512,209.6,512,256z"/>
</svg>
